<svg width="22" height="22" viewBox="0 0 22 22" fill="none" xmlns="http://www.w3.org/2000/svg">
<path fill-rule="evenodd" clip-rule="evenodd" d="M10.9976 11.0024C8.57155 11.0024 6.59857 9.0294 6.59857 6.60333C6.59857 4.17725 8.57155 2.20428 10.9976 2.20428C13.4237 2.20428 15.3967 4.17725 15.3967 6.60333C15.3967 9.0294 13.4237 11.0024 10.9976 11.0024ZM15.1305 11.7425C15.9005 11.1255 16.5219 10.3434 16.9487 9.45382C17.3756 8.56423 17.5968 7.59 17.5962 6.60333C17.597 5.48767 17.3149 4.39009 16.7763 3.41305C16.2377 2.43602 15.4602 1.61139 14.5164 1.01645C13.5726 0.421513 12.4934 0.0756433 11.3796 0.0110639C10.2658 -0.0535154 9.15382 0.165396 8.1476 0.647267C7.14137 1.12914 6.27376 1.85827 5.62584 2.76651C4.97793 3.67475 4.57086 4.73239 4.44271 5.84066C4.31457 6.94894 4.46952 8.07158 4.89308 9.1037C5.31665 10.1358 5.995 11.0437 6.86472 11.7425C2.84069 13.2547 0 16.9906 0 22H2.19952C2.19952 16.5012 6.14657 13.2019 10.9976 13.2019C15.8487 13.2019 19.7957 16.5012 19.7957 22H21.9952C21.9952 16.9906 19.1546 13.2547 15.1305 11.7425Z" fill="#6B6B6B"/>
</svg>
